<svg width="166" height="50" viewBox="0 0 166 50" fill="none" xmlns="http://www.w3.org/2000/svg">
<path d="M157.461 49.9494C155.845 49.9494 154.422 49.6296 153.193 48.9899C151.981 48.367 151.03 47.4915 150.34 46.3636C149.667 45.2356 149.33 43.9309 149.33 42.4494C149.33 41.5572 149.481 40.6228 149.784 39.6464C150.087 38.6532 150.576 37.7272 151.249 36.8686C151.922 36.0101 152.806 35.3114 153.901 34.7727C155.012 34.234 156.358 33.9646 157.941 33.9646C159.086 33.9646 160.045 34.0909 160.82 34.3434C161.611 34.5959 162.251 34.9242 162.739 35.3282C163.244 35.7323 163.623 36.1616 163.875 36.6161C164.145 37.0707 164.321 37.5084 164.406 37.9292C164.507 38.3333 164.557 38.67 164.557 38.9393C164.557 40.5723 163.867 41.835 162.486 42.7272C161.123 43.6026 159.187 44.0404 156.678 44.0404C156.106 44.0404 155.559 44.0151 155.037 43.9646C154.532 43.9141 154.06 43.8552 153.623 43.7878C153.943 44.6296 154.473 45.2525 155.214 45.6565C155.954 46.0437 156.72 46.2373 157.512 46.2373C158.656 46.2373 159.667 46.0353 160.542 45.6313C161.417 45.2104 162.242 44.5707 163.017 43.7121L165.264 46.9444C164.725 47.3821 164.119 47.8367 163.446 48.308C162.789 48.7794 161.981 49.1666 161.022 49.4697C160.062 49.7895 158.875 49.9494 157.461 49.9494ZM158.017 37.7525C157.023 37.7525 156.148 38.005 155.39 38.5101C154.633 39.0151 154.077 39.6801 153.724 40.505C154.145 40.5723 154.557 40.6313 154.961 40.6818C155.382 40.7154 155.794 40.7323 156.199 40.7323C156.569 40.7323 156.99 40.6986 157.461 40.6313C157.949 40.5639 158.421 40.4629 158.875 40.3282C159.347 40.1936 159.734 40.0252 160.037 39.8232C160.34 39.6043 160.491 39.3518 160.491 39.0656C160.491 38.9309 160.424 38.7626 160.289 38.5606C160.155 38.3585 159.911 38.1734 159.557 38.005C159.204 37.8367 158.69 37.7525 158.017 37.7525Z" fill="#255000"/>
<path d="M137.083 49.8989C137.15 48.5016 137.201 47.1043 137.234 45.707C137.268 44.3097 137.285 42.9292 137.285 41.5655C137.268 40.3198 137.243 39.0908 137.209 37.8787C137.192 36.6497 137.15 35.4629 137.083 34.3181L141.325 34.1918C141.342 34.8147 141.367 35.4544 141.401 36.111C141.94 35.4376 142.563 34.8989 143.27 34.4948C143.994 34.074 144.819 33.8635 145.745 33.8635C146.098 33.8635 146.553 33.914 147.108 34.015C147.664 34.1161 148.228 34.3097 148.8 34.5959L148.32 38.8635C147.899 38.611 147.445 38.4342 146.957 38.3332C146.485 38.2154 146.09 38.1565 145.77 38.1565C144.692 38.1565 143.775 38.6447 143.017 39.6211C142.277 40.5807 141.771 41.9191 141.502 43.6363C141.502 44.8147 141.485 45.9426 141.452 47.0201C141.435 48.0807 141.393 49.0403 141.325 49.8989H137.083Z" fill="#255000"/>
<path d="M127.2 50.0001C125.853 50.0001 124.674 49.7812 123.664 49.3435C122.671 48.9058 121.846 48.3081 121.189 47.5506C120.533 46.7762 120.045 45.8923 119.725 44.899C119.405 43.9058 119.245 42.862 119.245 41.7677C119.245 40.6566 119.439 39.6297 119.826 38.6869C120.23 37.7273 120.777 36.894 121.467 36.1869C122.174 35.4799 122.999 34.9327 123.942 34.5455C124.885 34.1415 125.912 33.9395 127.023 33.9395C128.184 33.9395 129.262 34.1415 130.255 34.5455C131.248 34.9496 132.115 35.5135 132.856 36.2374C133.597 36.9613 134.169 37.8115 134.573 38.7879C134.994 39.7644 135.205 40.825 135.205 41.9698C135.205 44.5118 134.506 46.49 133.109 47.9041C131.711 49.3014 129.742 50.0001 127.2 50.0001ZM127.174 45.9091C128.403 45.9091 129.338 45.564 129.977 44.8738C130.634 44.1836 130.962 43.1903 130.962 41.894C130.962 40.7324 130.609 39.798 129.902 39.091C129.194 38.3839 128.269 38.0304 127.124 38.0304C126.434 38.0304 125.802 38.2155 125.23 38.5859C124.657 38.9395 124.194 39.4193 123.841 40.0253C123.504 40.6145 123.336 41.2711 123.336 41.995C123.336 42.6347 123.462 43.2576 123.715 43.8637C123.984 44.4698 124.405 44.9664 124.977 45.3536C125.55 45.724 126.282 45.9091 127.174 45.9091Z" fill="#255000"/>
<path d="M112.454 49.9242C111.444 49.9242 110.644 49.7054 110.055 49.2677C109.466 48.8468 109.037 48.2576 108.767 47.5C108.498 46.7424 108.321 45.8754 108.237 44.899C108.17 43.9225 108.136 42.8956 108.136 41.8182C108.136 40.7071 108.178 39.5539 108.262 38.3586C107.134 38.5101 106.048 38.7037 105.005 38.9394L104.222 34.9747C105.619 34.6044 107.109 34.335 108.692 34.1666C108.809 33.3081 108.936 32.4074 109.07 31.4646C109.205 30.505 109.357 29.4949 109.525 28.4343L113.868 28.8131C113.666 29.6885 113.49 30.564 113.338 31.4394C113.187 32.298 113.052 33.1313 112.934 33.9394C113.877 33.9394 114.761 33.9646 115.586 34.0151C116.427 34.0488 117.202 34.1161 117.909 34.2172L117.404 38.1818C116.814 38.1145 116.2 38.0724 115.56 38.0555C114.937 38.0219 114.306 38.005 113.666 38.005C113.279 38.005 112.892 38.0135 112.505 38.0303C112.404 39.2592 112.336 40.3114 112.303 41.1869C112.286 42.0623 112.277 42.6852 112.277 43.0555C112.277 43.9815 112.328 44.6464 112.429 45.0505C112.547 45.4545 112.732 45.6565 112.985 45.6565C113.271 45.6565 113.591 45.564 113.944 45.3788C114.298 45.1767 114.643 44.9074 114.979 44.5707C115.333 44.234 115.628 43.872 115.863 43.4848L117.808 47.5505C116.141 49.133 114.357 49.9242 112.454 49.9242Z" fill="#255000"/>
<path d="M94.5233 49.9495C93.1092 49.9495 91.7961 49.7391 90.5839 49.3182C89.3718 48.8973 88.2775 48.3418 87.3011 47.6516C86.3415 46.9445 85.4998 46.1869 84.7759 45.3788L87.3011 41.3637C87.52 41.9361 87.8819 42.4832 88.387 43.0051C88.9089 43.527 89.5149 43.9899 90.2052 44.394C90.8954 44.798 91.6193 45.1179 92.3769 45.3536C93.1513 45.5893 93.9089 45.7071 94.6496 45.7071C95.7607 45.7071 96.6445 45.5303 97.3011 45.1768C97.9577 44.8064 98.286 44.3182 98.286 43.7122C98.286 43.2408 98.1344 42.8536 97.8314 42.5505C97.5452 42.2307 97.2085 41.9782 96.8213 41.793C96.4509 41.5909 96.1311 41.4142 95.8617 41.2627C95.6597 41.1617 95.2893 41.0101 94.7506 40.8081C94.2287 40.5893 93.6395 40.3536 92.9829 40.1011C92.3264 39.8485 91.7035 39.6128 91.1142 39.394C90.525 39.1583 90.0621 38.9647 89.7254 38.8132C87.2169 37.6852 85.9627 35.9428 85.9627 33.5859C85.9627 32.8283 86.1058 32.0876 86.392 31.3637C86.6951 30.6229 87.1496 29.9495 87.7557 29.3435C88.3617 28.7374 89.1361 28.2576 90.0789 27.9041C91.0217 27.5505 92.1496 27.3738 93.4627 27.3738C94.8937 27.3738 96.1648 27.5337 97.2759 27.8536C98.387 28.1566 99.3634 28.5438 100.205 29.0152C101.064 29.4866 101.796 29.9832 102.402 30.5051L100.079 34.394C98.2102 32.5421 96.0974 31.6162 93.7405 31.6162C92.7472 31.6162 91.9897 31.7256 91.4678 31.9445C90.9627 32.1465 90.6176 32.3822 90.4324 32.6516C90.2641 32.9041 90.1799 33.1145 90.1799 33.2829C90.1799 33.5691 90.2809 33.8553 90.4829 34.1415C90.7018 34.4277 91.1816 34.7307 91.9223 35.0505C92.2254 35.1852 92.6294 35.3536 93.1344 35.5556C93.6563 35.7408 94.2287 35.9512 94.8516 36.1869C95.4913 36.4226 96.1142 36.6751 96.7203 36.9445C97.3432 37.197 97.9072 37.458 98.4122 37.7273C99.0183 38.064 99.6412 38.4765 100.281 38.9647C100.921 39.4529 101.459 40.059 101.897 40.7829C102.352 41.4899 102.579 42.3569 102.579 43.3839C102.579 44.0068 102.461 44.697 102.225 45.4546C101.99 46.1953 101.577 46.9108 100.988 47.6011C100.399 48.2913 99.5823 48.8553 98.5385 49.293C97.4947 49.7307 96.1563 49.9495 94.5233 49.9495Z" fill="#255000"/>
<path d="M73.2576 49.899C71.6414 49.899 70.303 49.6381 69.2424 49.1162C68.1818 48.6111 67.3316 47.9125 66.6919 47.0202C66.069 46.1111 65.5976 45.0674 65.2778 43.8889C64.9747 42.7105 64.7727 41.4478 64.6717 40.101C64.5875 38.7542 64.5454 37.3906 64.5454 36.0101C64.5454 34.4445 64.5959 32.9209 64.697 31.4394C64.798 29.9411 64.9074 28.6869 65.0252 27.6768L69.6717 27.9546C69.5034 29.1835 69.3687 30.2862 69.2677 31.2627C69.1835 32.2223 69.1246 33.1313 69.0909 33.9899C69.0572 34.8485 69.0404 35.7324 69.0404 36.6414C69.0404 37.3485 69.0488 38.1145 69.0656 38.9394C69.0993 39.7475 69.1751 40.5556 69.2929 41.3637C69.4276 42.1549 69.6296 42.8788 69.899 43.5354C70.1852 44.1751 70.5808 44.697 71.0858 45.101C71.6077 45.4882 72.2727 45.6818 73.0808 45.6818C73.9562 45.6818 74.6633 45.4882 75.202 45.101C75.7576 44.697 76.1869 44.1667 76.4899 43.5101C76.7929 42.8367 77.0118 42.096 77.1464 41.2879C77.2811 40.463 77.3569 39.6297 77.3737 38.7879C77.4074 37.9293 77.4242 37.1212 77.4242 36.3637C77.4242 34.9327 77.3821 33.5438 77.298 32.197C77.2138 30.8502 77.1044 29.4192 76.9697 27.9041L81.6161 27.5505C81.7508 29.1667 81.8518 30.6482 81.9192 31.995C81.9865 33.3249 82.0202 34.5539 82.0202 35.6819C82.0202 37.2138 81.9613 38.6869 81.8434 40.101C81.7424 41.5152 81.5236 42.8199 81.1869 44.0152C80.8502 45.1936 80.3619 46.229 79.7222 47.1212C79.0825 47.9967 78.2323 48.6785 77.1717 49.1667C76.1279 49.6549 74.8232 49.899 73.2576 49.899Z" fill="#255000"/>
<path d="M0 20.4036V49.6958H6.96708V24.7722L28.9285 8.35839L50.2084 24.7722V49.6958H57.857V20.4036L28.9285 0L0 20.4036Z" fill="#C6DA52"/>
<rect x="8.45266" y="24.9209" width="7.28678" height="7.14104" fill="#C6DA52"/>
<rect x="8.45266" y="33.665" width="7.28678" height="7.14104" fill="#C6DA52"/>
<rect x="8.45266" y="42.4089" width="7.28678" height="7.28678" fill="#C6DA52"/>
<rect x="17.1968" y="24.9209" width="7.28678" height="7.14104" fill="#C6DA52"/>
<rect x="17.1968" y="33.665" width="7.28678" height="7.14104" fill="#C6DA52"/>
<rect x="17.1968" y="42.4089" width="7.28678" height="7.28678" fill="#C6DA52"/>
<rect x="30.5109" y="39.4951" width="7.22222" height="7.22222" transform="rotate(45 30.5109 39.4951)" fill="#C6DA52"/>
</svg>
